name ../VV_Laxity/vv_15.mot
datacolumns  10
datarows 40
range   7.00000000 7.39000000
cursor 1.0 1.0 0.0
keys m_key
wrap
enforce_loops no
enforce_constraints no
calc_derivatives -1.000000
event_color 0.000000 0.000000 0.000000
endheader
            time femur_r_force_vx femur_r_force_vy femur_r_force_vz femur_r_force_px femur_r_force_py femur_r_force_pz femur_r_torque_x femur_r_torque_y femur_r_torque_z 
      7.00000000       0.00000000       0.00000000       0.00000000      -0.02255621      -0.51082145       0.00000000      -8.67948351       2.32566060       0.00000000 
      7.01000000       0.00000000       0.00000000       0.00000000      -0.02255621      -0.51082145       0.00000000      -8.69397742       2.32954423       0.00000000 
      7.02000000       0.00000000       0.00000000       0.00000000      -0.02255621      -0.51082145       0.00000000      -8.70837524       2.33340211       0.00000000 
      7.03000000       0.00000000       0.00000000       0.00000000      -0.02255621      -0.51082145       0.00000000      -8.72267661       2.33723415       0.00000000 
      7.04000000       0.00000000       0.00000000       0.00000000      -0.02255621      -0.51082145       0.00000000      -8.73688118       2.34104026       0.00000000 
      7.05000000       0.00000000       0.00000000       0.00000000      -0.02255621      -0.51082145       0.00000000      -8.75098858       2.34482032       0.00000000 
      7.06000000       0.00000000       0.00000000       0.00000000      -0.02255621      -0.51082145       0.00000000      -8.76499847       2.34857426       0.00000000 
      7.07000000       0.00000000       0.00000000       0.00000000      -0.02255621      -0.51082145       0.00000000      -8.77891050       2.35230198       0.00000000 
      7.08000000       0.00000000       0.00000000       0.00000000      -0.02255621      -0.51082145       0.00000000      -8.79272432       2.35600338       0.00000000 
      7.09000000       0.00000000       0.00000000       0.00000000      -0.02255621      -0.51082145       0.00000000      -8.80643960       2.35967838       0.00000000 
      7.10000000       0.00000000       0.00000000       0.00000000      -0.02255621      -0.51082145       0.00000000      -8.82005599       2.36332688       0.00000000 
      7.11000000       0.00000000       0.00000000       0.00000000      -0.02255621      -0.51082145       0.00000000      -8.83357314       2.36694879       0.00000000 
      7.12000000       0.00000000       0.00000000       0.00000000      -0.02255621      -0.51082145       0.00000000      -8.84699074       2.37054402       0.00000000 
      7.13000000       0.00000000       0.00000000       0.00000000      -0.02255621      -0.51082145       0.00000000      -8.86030843       2.37411249       0.00000000 
      7.14000000       0.00000000       0.00000000       0.00000000      -0.02255621      -0.51082145       0.00000000      -8.87352589       2.37765410       0.00000000 
      7.15000000       0.00000000       0.00000000       0.00000000      -0.02255621      -0.51082145       0.00000000      -8.88664280       2.38116876       0.00000000 
      7.16000000       0.00000000       0.00000000       0.00000000      -0.02255621      -0.51082145       0.00000000      -8.89965882       2.38465639       0.00000000 
      7.17000000       0.00000000       0.00000000       0.00000000      -0.02255621      -0.51082145       0.00000000      -8.91257364       2.38811691       0.00000000 
      7.18000000       0.00000000       0.00000000       0.00000000      -0.02255621      -0.51082145       0.00000000      -8.92538692       2.39155022       0.00000000 
      7.19000000       0.00000000       0.00000000       0.00000000      -0.02255621      -0.51082145       0.00000000      -8.93809836       2.39495624       0.00000000 
      7.20000000       0.00000000       0.00000000       0.00000000      -0.02255621      -0.51082145       0.00000000      -8.95070763       2.39833488       0.00000000 
      7.21000000       0.00000000       0.00000000       0.00000000      -0.02255621      -0.51082145       0.00000000      -8.96321443       2.40168607       0.00000000 
      7.22000000       0.00000000       0.00000000       0.00000000      -0.02255621      -0.51082145       0.00000000      -8.97561843       2.40500971       0.00000000 
      7.23000000       0.00000000       0.00000000       0.00000000      -0.02255621      -0.51082145       0.00000000      -8.98791934       2.40830573       0.00000000 
      7.24000000       0.00000000       0.00000000       0.00000000      -0.02255621      -0.51082145       0.00000000      -9.00011685       2.41157404       0.00000000 
      7.25000000       0.00000000       0.00000000       0.00000000      -0.02255621      -0.51082145       0.00000000      -9.01221065       2.41481457       0.00000000 
      7.26000000       0.00000000       0.00000000       0.00000000      -0.02255621      -0.51082145       0.00000000      -9.02420044       2.41802722       0.00000000 
      7.27000000       0.00000000       0.00000000       0.00000000      -0.02255621      -0.51082145       0.00000000      -9.03608593       2.42121193       0.00000000 
      7.28000000       0.00000000       0.00000000       0.00000000      -0.02255621      -0.51082145       0.00000000      -9.04786682       2.42436861       0.00000000 
      7.29000000       0.00000000       0.00000000       0.00000000      -0.02255621      -0.51082145       0.00000000      -9.05954282       2.42749718       0.00000000 
      7.30000000       0.00000000       0.00000000       0.00000000      -0.02255621      -0.51082145       0.00000000      -9.07111363       2.43059757       0.00000000 
      7.31000000       0.00000000       0.00000000       0.00000000      -0.02255621      -0.51082145       0.00000000      -9.08257897       2.43366970       0.00000000 
      7.32000000       0.00000000       0.00000000       0.00000000      -0.02255621      -0.51082145       0.00000000      -9.09393855       2.43671349       0.00000000 
      7.33000000       0.00000000       0.00000000       0.00000000      -0.02255621      -0.51082145       0.00000000      -9.10519209       2.43972887       0.00000000 
      7.34000000       0.00000000       0.00000000       0.00000000      -0.02255621      -0.51082145       0.00000000      -9.11633931       2.44271576       0.00000000 
      7.35000000       0.00000000       0.00000000       0.00000000      -0.02255621      -0.51082145       0.00000000      -9.12737994       2.44567408       0.00000000 
      7.36000000       0.00000000       0.00000000       0.00000000      -0.02255621      -0.51082145       0.00000000      -9.13831370       2.44860378       0.00000000 
      7.37000000       0.00000000       0.00000000       0.00000000      -0.02255621      -0.51082145       0.00000000      -9.14914031       2.45150476       0.00000000 
      7.38000000       0.00000000       0.00000000       0.00000000      -0.02255621      -0.51082145       0.00000000      -9.15985952       2.45437696       0.00000000 
      7.39000000       0.00000000       0.00000000       0.00000000      -0.02255621      -0.51082145       0.00000000      -9.17047104       2.45722031       0.00000000 
